<svg xmlns="http://www.w3.org/2000/svg" width="261.333" height="261.333" version="1.0" viewBox="0 0 196 196"><g transform="matrix(.1 0 0 -.1 0 196)"><style>@media (prefers-color-scheme:dark){path{fill:#fff}}</style><path fill="#252b30" d="M1760 1945c-56-26-60-32-141-215-106-240-251-476-429-695-105-130-95-125-113-58-17 58-22 94-32 213-16 185-43 259-116 311-61 43-226 32-271-18-9-10-49-79-88-153-117-220-149-278-223-410C214 683 97 485 48 413 1 345-1 339 12 313c7-15 29-36 48-45 75-38 167-13 243 67 46 48 72 95 342 627 77 152 141 275 141 275 1-1 4-54 7-118 8-180 54-283 152-344 44-27 56-30 134-30 75 0 94 4 151 31 105 50 198 155 285 322 21 40 41 68 45 63 10-17 2-158-21-351-41-350 13-584 165-716 75-66 191-108 235-85 31 17 26 33-27 82-56 52-83 94-108 169-16 47-19 86-19 265 0 184 7 331 19 430 2 17 7 57 11 90 11 103 57 374 89 520 40 188 56 282 51 305-15 70-118 109-195 75z"/></g></svg>